<svg width="19" height="24" viewBox="0 0 19 24" fill="none" xmlns="http://www.w3.org/2000/svg">
<path d="M9.62357 7.22161C8.74757 7.22161 7.39157 6.22561 5.96357 6.26161C4.07957 6.28561 2.35157 7.35361 1.37957 9.04561C-0.576427 12.4416 0.875573 17.4576 2.78357 20.2176C3.71957 21.5616 4.82357 23.0736 6.28757 23.0256C7.69157 22.9656 8.21957 22.1136 9.92357 22.1136C11.6156 22.1136 12.0956 23.0256 13.5836 22.9896C15.0956 22.9656 16.0556 21.6216 16.9796 20.2656C18.0476 18.7056 18.4916 17.1936 18.5156 17.1096C18.4796 17.0976 15.5756 15.9816 15.5396 12.6216C15.5156 9.81361 17.8316 8.46961 17.9396 8.40961C16.6196 6.47761 14.5916 6.26161 13.8836 6.21361C12.0356 6.06961 10.4876 7.22161 9.62357 7.22161ZM12.7436 4.38961C13.5236 3.45361 14.0396 2.14561 13.8956 0.849609C12.7796 0.897609 11.4356 1.59361 10.6316 2.52961C9.91157 3.35761 9.28757 4.68961 9.45557 5.96161C10.6916 6.05761 11.9636 5.32561 12.7436 4.38961Z" fill="#232E60"/>
</svg>
