<svg width="16" height="20" viewBox="0 0 16 20" fill="none" xmlns="http://www.w3.org/2000/svg">
<path fill-rule="evenodd" clip-rule="evenodd" d="M9.00018 1.125C9.00018 0.572715 8.55247 0.125 8.00018 0.125C7.4479 0.125 7.00018 0.572715 7.00018 1.125V1.875H6.44277C4.21769 1.875 2.3761 3.60501 2.2372 5.82574L2.0162 9.3592C1.93194 10.7064 1.47965 12.0047 0.708587 13.1126C0.011905 14.1136 0.632125 15.4962 1.84306 15.6415L5.25018 16.0504V17.125C5.25018 18.6438 6.4814 19.875 8.00018 19.875C9.51897 19.875 10.7502 18.6438 10.7502 17.125V16.0504L14.1573 15.6415C15.3682 15.4962 15.9885 14.1136 15.2918 13.1126C14.5207 12.0047 14.0684 10.7064 13.9842 9.3592L13.7632 5.82574C13.6243 3.60501 11.7827 1.875 9.55759 1.875H9.00018V1.125ZM6.75018 17.125C6.75018 17.8154 7.30983 18.375 8.00018 18.375C8.69054 18.375 9.25018 17.8154 9.25018 17.125V16.375H6.75018V17.125Z" fill="#00CCBB"/>
</svg>
