<svg width="12" height="13" viewBox="0 0 12 13" fill="none" xmlns="http://www.w3.org/2000/svg">
<path d="M6.50008 3.32617C6.50008 3.05003 6.27622 2.82617 6.00008 2.82617C5.72394 2.82617 5.50008 3.05003 5.50008 3.32617V6.6595C5.50008 6.8319 5.58889 6.99214 5.73508 7.0835L7.73508 8.3335C7.96925 8.47986 8.27772 8.40867 8.42408 8.1745C8.57044 7.94034 8.49925 7.63186 8.26508 7.48551L6.50008 6.38238V3.32617Z" fill="#868686"/>
<path fill-rule="evenodd" clip-rule="evenodd" d="M6.00008 0.826172C2.77842 0.826172 0.166748 3.43784 0.166748 6.6595C0.166748 9.88117 2.77842 12.4928 6.00008 12.4928C9.22174 12.4928 11.8334 9.88117 11.8334 6.6595C11.8334 3.43784 9.22174 0.826172 6.00008 0.826172ZM1.16675 6.6595C1.16675 3.99013 3.3307 1.82617 6.00008 1.82617C8.66946 1.82617 10.8334 3.99013 10.8334 6.6595C10.8334 9.32888 8.66946 11.4928 6.00008 11.4928C3.3307 11.4928 1.16675 9.32888 1.16675 6.6595Z" fill="#868686"/>
</svg>
