<svg width="17" height="19" viewBox="0 0 17 19" fill="none" xmlns="http://www.w3.org/2000/svg">
<path d="M11.6066 0.929688C11.7392 0.929688 11.8664 0.982366 11.9602 1.07613L14.7886 3.90456C14.9838 4.09982 14.9838 4.41641 14.7886 4.61167L5.59619 13.8041C5.53337 13.8669 5.45495 13.9118 5.369 13.9343L1.54057 14.9343C1.36883 14.9791 1.18617 14.9296 1.06066 14.8041C0.93514 14.6785 0.885581 14.4959 0.930441 14.3241L1.93044 10.4957C1.95289 10.4098 1.99784 10.3313 2.06066 10.2685L11.253 1.07613C11.3468 0.982366 11.474 0.929688 11.6066 0.929688Z" fill="#232E60"/>
<path d="M1 16.6797C0.585786 16.6797 0.25 17.0155 0.25 17.4297C0.25 17.8439 0.585786 18.1797 1 18.1797H16C16.4142 18.1797 16.75 17.8439 16.75 17.4297C16.75 17.0155 16.4142 16.6797 16 16.6797H1Z" fill="#232E60"/>
</svg>
