<svg width="48" height="48" viewBox="0 0 48 48" fill="none" xmlns="http://www.w3.org/2000/svg">
<rect width="48" height="48" rx="24" fill="#FF67C4"/>
<path d="M26.2498 14.875C25.0232 14.875 23.8468 15.3623 22.9794 16.2296C22.1121 17.097 21.6248 18.2734 21.6248 19.5V22.075H19.1498C19.0255 22.075 18.9248 22.1757 18.9248 22.3V25.7C18.9248 25.8243 19.0255 25.925 19.1498 25.925H21.6248V32.9C21.6248 33.0243 21.7255 33.125 21.8498 33.125H25.2498C25.3741 33.125 25.4748 33.0243 25.4748 32.9V25.925H27.9717C28.075 25.925 28.165 25.8547 28.19 25.7546L29.04 22.3546C29.0755 22.2126 28.9681 22.075 28.8217 22.075H25.4748V19.5C25.4748 19.2945 25.5565 19.0973 25.7018 18.952C25.8471 18.8067 26.0443 18.725 26.2498 18.725H28.8498C28.9741 18.725 29.0748 18.6243 29.0748 18.5V15.1C29.0748 14.9757 28.9741 14.875 28.8498 14.875H26.2498Z" fill="#FDE962"/>
</svg>
