<svg width="48" height="48" viewBox="0 0 48 48" fill="none" xmlns="http://www.w3.org/2000/svg">
<rect width="48" height="48" rx="24" fill="#FF67C4"/>
<path d="M24.0002 20.75C22.2053 20.75 20.7502 22.2051 20.7502 24C20.7502 25.795 22.2053 27.25 24.0002 27.25C25.7951 27.25 27.2502 25.795 27.2502 24C27.2502 22.2051 25.7951 20.75 24.0002 20.75Z" fill="#FDE962"/>
<path fill-rule="evenodd" clip-rule="evenodd" d="M18.7697 15.0815C22.2178 14.6961 25.7825 14.6961 29.2307 15.0815C31.1291 15.2937 32.6603 16.7895 32.8831 18.6945C33.2954 22.2195 33.2954 25.7806 32.8831 29.3056C32.6603 31.2106 31.1291 32.7064 29.2307 32.9186C25.7825 33.304 22.2178 33.304 18.7697 32.9186C16.8713 32.7064 15.3401 31.2106 15.1173 29.3056C14.705 25.7806 14.705 22.2195 15.1173 18.6945C15.3401 16.7895 16.8713 15.2937 18.7697 15.0815ZM29.0002 18C28.4479 18 28.0002 18.4478 28.0002 19C28.0002 19.5523 28.4479 20 29.0002 20C29.5525 20 30.0002 19.5523 30.0002 19C30.0002 18.4478 29.5525 18 29.0002 18ZM19.2502 24C19.2502 21.3767 21.3768 19.25 24.0002 19.25C26.6235 19.25 28.7502 21.3767 28.7502 24C28.7502 26.6234 26.6235 28.75 24.0002 28.75C21.3768 28.75 19.2502 26.6234 19.2502 24Z" fill="#FDE962"/>
</svg>
