<svg width="48" height="48" viewBox="0 0 48 48" fill="none" xmlns="http://www.w3.org/2000/svg">
<rect width="48" height="48" rx="24" fill="#FF67C4"/>
<path d="M16.75 14.375C15.5764 14.375 14.625 15.3264 14.625 16.5C14.625 17.6736 15.5764 18.625 16.75 18.625C17.9236 18.625 18.875 17.6736 18.875 16.5C18.875 15.3264 17.9236 14.375 16.75 14.375Z" fill="#FDE962"/>
<path d="M14.75 20.375C14.681 20.375 14.625 20.431 14.625 20.5V33.5C14.625 33.569 14.681 33.625 14.75 33.625H18.75C18.819 33.625 18.875 33.569 18.875 33.5V20.5C18.875 20.431 18.819 20.375 18.75 20.375H14.75Z" fill="#FDE962"/>
<path d="M21.25 20.375C21.181 20.375 21.125 20.431 21.125 20.5V33.5C21.125 33.569 21.181 33.625 21.25 33.625H25.25C25.319 33.625 25.375 33.569 25.375 33.5V26.5C25.375 26.0027 25.5725 25.5258 25.9242 25.1742C26.2758 24.8225 26.7527 24.625 27.25 24.625C27.7473 24.625 28.2242 24.8225 28.5758 25.1742C28.9275 25.5258 29.125 26.0027 29.125 26.5V33.5C29.125 33.569 29.181 33.625 29.25 33.625H33.25C33.319 33.625 33.375 33.569 33.375 33.5V24.8802C33.375 22.4535 31.2644 20.555 28.8498 20.7745C28.1052 20.8422 27.369 21.0273 26.6815 21.3219L25.375 21.8819V20.5C25.375 20.431 25.319 20.375 25.25 20.375H21.25Z" fill="#FDE962"/>
</svg>
