<svg width="12" height="14" viewBox="0 0 12 14" fill="none" xmlns="http://www.w3.org/2000/svg">
<path d="M3.83333 5.66667C3.83333 4.47005 4.80338 3.5 6 3.5C7.19662 3.5 8.16667 4.47005 8.16667 5.66667C8.16667 6.86328 7.19662 7.83333 6 7.83333C4.80338 7.83333 3.83333 6.86328 3.83333 5.66667Z" fill="#FF67C4"/>
<path fill-rule="evenodd" clip-rule="evenodd" d="M0.515695 4.91826C0.744788 2.13896 3.06732 0 5.85604 0H6.144C8.93272 0 11.2552 2.13896 11.4843 4.91826C11.6077 6.41466 11.1455 7.90052 10.195 9.06288L6.99964 12.9707C6.483 13.6026 5.51704 13.6026 5.00039 12.9707L1.80502 9.06288C0.854578 7.90052 0.39235 6.41466 0.515695 4.91826ZM6 2.5C4.2511 2.5 2.83333 3.91777 2.83333 5.66667C2.83333 7.41557 4.2511 8.83333 6 8.83333C7.7489 8.83333 9.16667 7.41557 9.16667 5.66667C9.16667 3.91777 7.7489 2.5 6 2.5Z" fill="#FF67C4"/>
</svg>
