<svg width="85" height="69" viewBox="0 0 85 69" fill="none" xmlns="http://www.w3.org/2000/svg">
<path d="M20.7129 1.69715C35.2106 0.436889 49.7903 0.436888 64.288 1.69715L71.2729 2.30432C75.9227 2.70853 79.9051 5.48199 81.9686 9.44921C82.2326 9.95674 82.0347 10.5712 81.5483 10.8723L52.5682 28.8124C46.3528 32.66 38.5157 32.7407 32.2224 29.0219L3.04868 11.7829C2.57735 11.5044 2.361 10.9311 2.57341 10.4265C4.46114 5.94227 8.70518 2.74096 13.7281 2.30433L20.7129 1.69715Z" fill="#00CCBB"/>
<path d="M2.54967 19.5463C1.82834 19.12 0.907952 19.5787 0.82387 20.4123C-0.349656 32.0471 -0.0656309 43.7921 1.67595 55.3736C2.59407 61.4791 7.57709 66.1598 13.7281 66.6945L20.7129 67.3017C35.2106 68.5619 49.7904 68.5619 64.2881 67.3017L71.2729 66.6945C77.4239 66.1598 82.4069 61.4791 83.325 55.3736C85.1173 43.4546 85.3659 31.3625 84.0708 19.3955C83.9799 18.5559 83.0439 18.1057 82.3259 18.5502L56.2198 34.7111C47.8108 39.9167 37.2076 40.0259 28.6931 34.9946L2.54967 19.5463Z" fill="#00CCBB"/>
</svg>
