<svg width="80" height="84" viewBox="0 0 80 84" fill="none" xmlns="http://www.w3.org/2000/svg">
<path d="M40.0001 0.0625C29.4722 0.0625 20.9376 8.59707 20.9376 19.125C20.9376 29.6529 29.4722 38.1875 40.0001 38.1875C50.528 38.1875 59.0626 29.6529 59.0626 19.125C59.0626 8.59707 50.528 0.0625 40.0001 0.0625Z" fill="#FF67C4"/>
<path d="M19.6667 48.3542C9.13882 48.3542 0.604248 56.8887 0.604248 67.4167V73.4571C0.604248 77.286 3.37916 80.5507 7.15805 81.1677C28.9088 84.7188 51.0914 84.7188 72.8421 81.1677C76.621 80.5507 79.3959 77.286 79.3959 73.4571V67.4167C79.3959 56.8887 70.8613 48.3542 60.3334 48.3542H58.6007C57.6628 48.3542 56.7309 48.5025 55.8394 48.7936L51.4397 50.2302C44.0064 52.6574 35.9938 52.6574 28.5605 50.2302L24.1608 48.7936C23.2693 48.5025 22.3373 48.3542 21.3995 48.3542H19.6667Z" fill="#FF67C4"/>
</svg>
