<svg width="16" height="20" viewBox="0 0 16 20" fill="none" xmlns="http://www.w3.org/2000/svg">
<path fill-rule="evenodd" clip-rule="evenodd" d="M11.9243 2.41882C9.33121 1.98409 6.6691 1.98409 4.07598 2.41882C3.58798 2.50063 3.20039 2.87556 3.10311 3.3585C2.21803 7.75248 2.16974 12.274 2.96077 16.6859L3.12432 17.598L6.79484 14.111C7.47028 13.4694 8.53003 13.4694 9.20547 14.111L12.876 17.598L13.0395 16.6859C13.8306 12.274 13.7823 7.75248 12.8972 3.3585C12.7999 2.87556 12.4123 2.50063 11.9243 2.41882ZM3.82797 0.939465C6.58528 0.47721 9.41503 0.477209 12.1723 0.939465C13.2716 1.12375 14.1472 1.96756 14.3677 3.0623C15.29 7.64121 15.3403 12.353 14.516 16.9506L14.2945 18.1859C14.1086 19.2227 12.8446 19.6372 12.0809 18.9116L8.17234 15.1985C8.07585 15.1069 7.92446 15.1069 7.82797 15.1985L3.91944 18.9116C3.15574 19.6372 1.8917 19.2227 1.70579 18.1859L1.48431 16.9506C0.659992 12.353 0.710317 7.64121 1.63265 3.0623C1.85316 1.96756 2.72875 1.12375 3.82797 0.939465Z" fill="#00CCBB"/>
</svg>
