<svg width="18" height="18" viewBox="0 0 18 18" fill="none" xmlns="http://www.w3.org/2000/svg">
<path fill-rule="evenodd" clip-rule="evenodd" d="M11.2638 12.324C8.61354 14.4466 4.73411 14.2796 2.27732 11.8228C-0.358717 9.18674 -0.358717 4.91287 2.27732 2.27683C4.91336 -0.359205 9.18722 -0.359205 11.8233 2.27683C14.28 4.73362 14.4471 8.61304 12.3245 11.2633L17.4801 16.4189C17.773 16.7118 17.773 17.1867 17.4801 17.4796C17.1872 17.7725 16.7123 17.7725 16.4194 17.4796L11.2638 12.324ZM3.33798 10.7621C1.28773 8.71186 1.28773 5.38775 3.33798 3.33749C5.38823 1.28724 8.71235 1.28724 10.7626 3.33749C12.8114 5.38624 12.8129 8.70698 10.7671 10.7576C10.7656 10.7591 10.7641 10.7606 10.7626 10.7621C10.7611 10.7636 10.7596 10.7651 10.7581 10.7666C8.70748 12.8124 5.38673 12.8109 3.33798 10.7621Z" fill="#00CCBB"/>
</svg>
