<svg width="19" height="20" viewBox="0 0 19 20" fill="none" xmlns="http://www.w3.org/2000/svg">
<path fill-rule="evenodd" clip-rule="evenodd" d="M11.5815 3.5C11.5815 1.70507 13.0366 0.25 14.8315 0.25C16.6265 0.25 18.0815 1.70507 18.0815 3.5C18.0815 5.29493 16.6265 6.75 14.8315 6.75C13.8719 6.75 13.0094 6.33409 12.4145 5.6727L9.69721 7.15487L6.65669 8.89231C6.92707 9.36641 7.08154 9.91516 7.08154 10.5C7.08154 10.7963 7.04188 11.0834 6.96757 11.3562L12.4145 14.3273C13.0094 13.6659 13.8719 13.25 14.8315 13.25C16.6265 13.25 18.0815 14.7051 18.0815 16.5C18.0815 18.2949 16.6265 19.75 14.8315 19.75C13.0366 19.75 11.5815 18.2949 11.5815 16.5C11.5815 16.2036 11.6212 15.9166 11.6955 15.6438L6.24858 12.6727C5.65366 13.3341 4.79117 13.75 3.83154 13.75C2.03662 13.75 0.581543 12.2949 0.581543 10.5C0.581543 8.70507 2.03662 7.25 3.83154 7.25C4.48222 7.25 5.08824 7.44122 5.59647 7.77052L8.96589 5.84514L11.6955 4.35625C11.6212 4.08344 11.5815 3.79635 11.5815 3.5ZM14.8315 1.75C13.865 1.75 13.0815 2.5335 13.0815 3.5C13.0815 4.4665 13.865 5.25 14.8315 5.25C15.798 5.25 16.5815 4.4665 16.5815 3.5C16.5815 2.5335 15.798 1.75 14.8315 1.75ZM3.83154 8.75C2.86504 8.75 2.08154 9.5335 2.08154 10.5C2.08154 11.4665 2.86504 12.25 3.83154 12.25C4.79804 12.25 5.58154 11.4665 5.58154 10.5C5.58154 9.5335 4.79804 8.75 3.83154 8.75ZM13.0815 16.5C13.0815 15.5335 13.865 14.75 14.8315 14.75C15.798 14.75 16.5815 15.5335 16.5815 16.5C16.5815 17.4665 15.798 18.25 14.8315 18.25C13.865 18.25 13.0815 17.4665 13.0815 16.5Z" fill="#232E60"/>
</svg>
