<svg width="48" height="48" viewBox="0 0 48 48" fill="none" xmlns="http://www.w3.org/2000/svg">
<rect width="48" height="48" rx="24" fill="#FF67C4"/>
<path d="M33.7336 18.0866C33.7916 18.0058 33.706 17.9016 33.6133 17.9375C32.9545 18.1928 32.2661 18.3651 31.5639 18.45C32.3458 17.9829 32.9491 17.2718 33.2837 16.4299C33.3178 16.3441 33.2242 16.2676 33.1434 16.3122C32.4167 16.7135 31.6329 17.0025 30.8187 17.1689C30.7847 17.1759 30.7495 17.1643 30.7256 17.1391C30.1146 16.4944 29.3104 16.0652 28.4337 15.9168C27.5385 15.7654 26.6184 15.9153 25.8176 16.3432C25.0169 16.771 24.3808 17.4525 24.0091 18.2808C23.6557 19.0684 23.5603 19.9463 23.7346 20.7894C23.7482 20.8548 23.697 20.9166 23.6303 20.9124C22.0462 20.8141 20.4985 20.3927 19.0825 19.6738C17.6701 18.9568 16.4194 17.9592 15.4065 16.7427C15.3615 16.6887 15.2763 16.6957 15.2436 16.7578C14.9284 17.3559 14.7634 18.0225 14.7639 18.7C14.7626 19.3744 14.9281 20.0386 15.2456 20.6335C15.5631 21.2285 16.0229 21.7357 16.5839 22.11C15.9889 22.0938 15.4056 21.9467 14.8751 21.68C14.8067 21.6457 14.7247 21.6946 14.7283 21.771C14.7697 22.6603 15.0961 23.553 15.6612 24.2379C16.2625 24.9668 17.0971 25.4656 18.0239 25.65C17.6671 25.7585 17.2967 25.8158 16.9239 25.82C16.7209 25.8176 16.5184 25.8026 16.3174 25.7752C16.2429 25.765 16.182 25.8357 16.2081 25.9063C16.4845 26.6538 16.9729 27.306 17.6149 27.7821C18.3014 28.2911 19.1294 28.5735 19.9839 28.59C18.5411 29.7252 16.7597 30.3448 14.9239 30.35C14.7352 30.3506 14.5467 30.3445 14.3585 30.3317C14.2525 30.3244 14.2038 30.4657 14.2952 30.5199C16.0839 31.5814 18.1284 32.1425 20.2139 32.14C21.7535 32.156 23.281 31.865 24.707 31.2841C26.133 30.7031 27.4289 29.8439 28.5191 28.7565C29.6092 27.6691 30.4718 26.3754 31.0564 24.9509C31.641 23.5264 31.9359 21.9997 31.9239 20.46V19.9801C31.9239 19.9486 31.9388 19.9189 31.964 19.8999C32.6423 19.3877 33.2388 18.7763 33.7336 18.0866Z" fill="#FDE962"/>
</svg>
