<svg width="16" height="18" viewBox="0 0 16 18" fill="none" xmlns="http://www.w3.org/2000/svg">
<path fill-rule="evenodd" clip-rule="evenodd" d="M1 13.2497C1.41421 13.2497 1.75 13.5855 1.75 13.9997V15.9997C1.75 16.1377 1.86193 16.2497 2 16.2497H14C14.1381 16.2497 14.25 16.1377 14.25 15.9997V13.9997C14.25 13.5855 14.5858 13.2497 15 13.2497C15.4142 13.2497 15.75 13.5855 15.75 13.9997V15.9997C15.75 16.9662 14.9665 17.7497 14 17.7497H2C1.0335 17.7497 0.25 16.9662 0.25 15.9997V13.9997C0.25 13.5855 0.585786 13.2497 1 13.2497Z" fill="#232E60"/>
<path fill-rule="evenodd" clip-rule="evenodd" d="M6.73785 13.1269C6.22347 13.1269 5.79438 12.7338 5.74946 12.2214C5.59582 10.4687 5.56872 8.70733 5.66829 6.95108C5.42131 6.93743 5.17443 6.92162 4.92765 6.90363L3.4381 6.79505C2.8638 6.75318 2.54276 6.11282 2.85281 5.62759C3.91486 3.96551 5.28333 2.52059 6.88529 1.36984L7.48206 0.941158C7.79156 0.718832 8.20842 0.718833 8.51792 0.941158L9.11469 1.36984C10.7166 2.52058 12.0851 3.96551 13.1472 5.62759C13.4572 6.11282 13.1362 6.75318 12.5619 6.79505L11.0723 6.90363C10.8256 6.92162 10.5787 6.93743 10.3317 6.95108C10.4313 8.70734 10.4042 10.4687 10.2505 12.2214C10.2056 12.7338 9.77651 13.1269 9.26213 13.1269H6.73785Z" fill="#232E60"/>
</svg>
