<svg width="48" height="48" viewBox="0 0 48 48" fill="none" xmlns="http://www.w3.org/2000/svg">
<rect width="48" height="48" rx="24" fill="#FF67C4"/>
<path fill-rule="evenodd" clip-rule="evenodd" d="M18.989 16.8905C22.3247 16.6296 25.6756 16.6296 29.0113 16.8905L31.252 17.0659C32.5001 17.1635 33.5211 18.0989 33.7274 19.3337C34.2436 22.4232 34.2436 25.5769 33.7274 28.6664C33.5211 29.9012 32.5001 30.8366 31.252 30.9342L29.0113 31.1095C25.6756 31.3705 22.3247 31.3705 18.989 31.1095L16.7483 30.9342C15.5002 30.8366 14.4792 29.9012 14.2729 28.6664C13.7567 25.5769 13.7567 22.4232 14.2729 19.3337C14.4792 18.0989 15.5002 17.1635 16.7483 17.0659L18.989 16.8905ZM22.0001 26.4702V21.5299C22.0001 21.2967 22.2545 21.1527 22.4545 21.2726L26.5714 23.7428C26.7656 23.8593 26.7656 24.1408 26.5714 24.2573L22.4545 26.7274C22.2545 26.8474 22.0001 26.7034 22.0001 26.4702Z" fill="#FDE962"/>
</svg>
